<svg width="64" height="64" viewBox="0 0 64 64" fill="none" xmlns="http://www.w3.org/2000/svg">
<path fill-rule="evenodd" clip-rule="evenodd" d="M10.6667 32C10.6667 30.5273 11.8606 29.3333 13.3333 29.3333H50.6667C52.1394 29.3333 53.3333 30.5273 53.3333 32C53.3333 33.4728 52.1394 34.6667 50.6667 34.6667H13.3333C11.8606 34.6667 10.6667 33.4728 10.6667 32Z" fill="#212121"/>
<path fill-rule="evenodd" clip-rule="evenodd" d="M30.1144 11.4477C31.1558 10.4063 32.8442 10.4063 33.8856 11.4477L52.5523 30.1144C53.5937 31.1558 53.5937 32.8442 52.5523 33.8856L33.8856 52.5523C32.8442 53.5937 31.1558 53.5937 30.1144 52.5523C29.073 51.5109 29.073 49.8225 30.1144 48.7811L46.8954 32L30.1144 15.219C29.073 14.1776 29.073 12.4891 30.1144 11.4477Z" fill="#212121"/>
</svg>
