<svg width="64" height="64" viewBox="0 0 64 64" fill="none" xmlns="http://www.w3.org/2000/svg">
<g clip-path="url(#clip0_174_323)">
<path d="M18.1523 32.236C18.0006 32.6014 17.9607 33.0035 18.0376 33.3915C18.1145 33.7796 18.3047 34.1361 18.5843 34.416L30.5843 46.416C30.7701 46.6023 30.9908 46.75 31.2337 46.8508C31.4767 46.9517 31.7372 47.0036 32.0003 47.0036C32.2633 47.0036 32.5238 46.9517 32.7668 46.8508C33.0098 46.75 33.2305 46.6023 33.4163 46.416L45.4163 34.416C45.6967 34.1363 45.8878 33.7796 45.9652 33.3912C46.0427 33.0027 46.0031 32.6 45.8514 32.2341C45.6997 31.8683 45.4428 31.5556 45.1133 31.3359C44.7837 31.1162 44.3964 30.9993 44.0003 31H36.0003V-3C36.0003 -3.53043 35.7896 -4.03914 35.4145 -4.41421C35.0394 -4.78929 34.5307 -5 34.0003 -5H30.0003C29.4698 -5 28.9611 -4.78929 28.5861 -4.41421C28.211 -4.03914 28.0003 -3.53043 28.0003 -3V31H20.0003C19.6045 31.0001 19.2177 31.1175 18.8887 31.3376C18.5597 31.5576 18.3034 31.8703 18.1523 32.236Z" fill="#212121"/>
<path d="M56.0003 15H44.0003V23H52.4003L55.5163 51H8.46827L11.6003 23H20.0003V15H8.00027C7.01555 14.9999 6.0654 15.3631 5.33177 16.02C4.59814 16.6768 4.13259 17.5812 4.02427 18.56L0.024274 54.56C-0.0375937 55.119 0.0191243 55.6848 0.190726 56.2204C0.362327 56.756 0.644954 57.2494 1.02016 57.6684C1.39536 58.0874 1.85471 58.4226 2.36822 58.652C2.88172 58.8815 3.43784 59 4.00027 59H60.0003C60.5627 59 61.1188 58.8815 61.6323 58.652C62.1458 58.4226 62.6052 58.0874 62.9804 57.6684C63.3556 57.2494 63.6382 56.756 63.8098 56.2204C63.9814 55.6848 64.0381 55.119 63.9763 54.56L59.9763 18.56C59.868 17.5812 59.4024 16.6768 58.6688 16.02C57.9352 15.3631 56.985 14.9999 56.0003 15Z" fill="#212121"/>
</g>
<defs>
<clipPath id="clip0_174_323">
<rect width="64" height="64" fill="white"/>
</clipPath>
</defs>
</svg>
