<svg width="54" height="59" viewBox="0 0 54 59" fill="none" xmlns="http://www.w3.org/2000/svg">
<path fill-rule="evenodd" clip-rule="evenodd" d="M8 29.3333C6.52724 29.3333 5.33333 30.5272 5.33333 32V50.6667C5.33333 52.1394 6.52724 53.3333 8 53.3333H45.3333C46.8061 53.3333 48 52.1394 48 50.6667V32C48 30.5272 46.8061 29.3333 45.3333 29.3333H8ZM0 32C0 27.5817 3.58172 24 8 24H45.3333C49.7516 24 53.3333 27.5817 53.3333 32V50.6667C53.3333 55.0849 49.7516 58.6667 45.3333 58.6667H8C3.58172 58.6667 0 55.0849 0 50.6667V32Z" fill="#212121"/>
<path fill-rule="evenodd" clip-rule="evenodd" d="M26.6667 5.33333C23.8377 5.33333 21.1246 6.45714 19.1242 8.45753C17.1238 10.4579 16 13.171 16 16V26.6667C16 28.1394 14.8061 29.3333 13.3334 29.3333C11.8606 29.3333 10.6667 28.1394 10.6667 26.6667V16C10.6667 11.7565 12.3524 7.68687 15.353 4.68629C18.3536 1.68571 22.4232 0 26.6667 0C30.9102 0 34.9798 1.68571 37.9804 4.68629C40.981 7.68687 42.6667 11.7565 42.6667 16V26.6667C42.6667 28.1394 41.4728 29.3333 40 29.3333C38.5273 29.3333 37.3334 28.1394 37.3334 26.6667V16C37.3334 13.171 36.2095 10.4579 34.2092 8.45753C32.2088 6.45714 29.4957 5.33333 26.6667 5.33333Z" fill="#212121"/>
</svg>
