<svg width="64" height="64" viewBox="0 0 64 64" fill="none" xmlns="http://www.w3.org/2000/svg">
<path fill-rule="evenodd" clip-rule="evenodd" d="M18.6667 7.99999C12.7757 7.99999 8.00002 12.7756 8.00002 18.6667V45.3333C8.00002 51.2244 12.7757 56 18.6667 56H45.3334C51.2244 56 56 51.2244 56 45.3333V18.6667C56 12.7756 51.2244 7.99999 45.3334 7.99999H18.6667ZM2.66669 18.6667C2.66669 9.8301 9.83013 2.66666 18.6667 2.66666H45.3334C54.1699 2.66666 61.3334 9.8301 61.3334 18.6667V45.3333C61.3334 54.1699 54.1699 61.3333 45.3334 61.3333H18.6667C9.83013 61.3333 2.66669 54.1699 2.66669 45.3333V18.6667Z" fill="#212121"/>
<path fill-rule="evenodd" clip-rule="evenodd" d="M33.2889 23.9711C31.6244 23.7243 29.9244 24.0086 28.4308 24.7836C26.9372 25.5586 25.726 26.7849 24.9695 28.2879C24.213 29.7909 23.9497 31.4943 24.217 33.1556C24.4843 34.8169 25.2687 36.3516 26.4585 37.5415C27.6484 38.7313 29.1831 39.5157 30.8444 39.783C32.5058 40.0503 34.2091 39.787 35.7121 39.0305C37.2152 38.274 38.4414 37.0628 39.2164 35.5692C39.9914 34.0756 40.2757 32.3756 40.0289 30.7111C39.7771 29.0133 38.9859 27.4414 37.7722 26.2278C36.5586 25.0141 34.9867 24.2229 33.2889 23.9711ZM25.9745 20.0496C28.4638 18.758 31.297 18.2841 34.0712 18.6955C36.9009 19.1151 39.5207 20.4337 41.5435 22.4565C43.5663 24.4793 44.8849 27.0991 45.3045 29.9288C45.7159 32.703 45.242 35.5362 43.9504 38.0256C42.6587 40.5149 40.615 42.5335 38.1099 43.7944C35.6049 45.0553 32.766 45.4942 29.9971 45.0486C27.2283 44.6031 24.6704 43.2958 22.6873 41.3127C20.7042 39.3296 19.3969 36.7718 18.9514 34.0029C18.5058 31.234 18.9447 28.3951 20.2056 25.8901C21.4665 23.385 23.4851 21.3413 25.9745 20.0496Z" fill="#212121"/>
<path fill-rule="evenodd" clip-rule="evenodd" d="M44 17.3333C44 15.8606 45.1939 14.6667 46.6667 14.6667H46.6933C48.1661 14.6667 49.36 15.8606 49.36 17.3333C49.36 18.8061 48.1661 20 46.6933 20H46.6667C45.1939 20 44 18.8061 44 17.3333Z" fill="#212121"/>
</svg>
