<svg width="64" height="64" viewBox="0 0 64 64" fill="none" xmlns="http://www.w3.org/2000/svg">
<g clip-path="url(#clip0_174_320)">
<path d="M56 4H8C5.87827 4 3.84344 4.84285 2.34315 6.34315C0.842855 7.84344 0 9.87827 0 12L0 13.6L32 31.6L64 14V12C64 9.87827 63.1571 7.84344 61.6569 6.34315C60.1566 4.84285 58.1217 4 56 4Z" fill="#212121"/>
<path d="M30 39.6L0 22.8V52C0 54.1217 0.842855 56.1566 2.34315 57.6569C3.84344 59.1571 5.87827 60 8 60H56C58.1217 60 60.1566 59.1571 61.6569 57.6569C63.1571 56.1566 64 54.1217 64 52V22.8L34 39.6C33.3696 39.877 32.6886 40.02 32 40.02C31.3114 40.02 30.6304 39.877 30 39.6Z" fill="#212121"/>
</g>
<defs>
<clipPath id="clip0_174_320">
<rect width="64" height="64" fill="white"/>
</clipPath>
</defs>
</svg>
