<svg width="37" height="64" viewBox="0 0 37 64" fill="none" xmlns="http://www.w3.org/2000/svg">
<g clip-path="url(#clip0_174_337)">
<path d="M10.2857 56C10.2857 57.4666 11.4857 58.6666 12.9524 58.6666H23.619C25.0857 58.6666 26.2857 57.4666 26.2857 56V53.3333H10.2857V56ZM18.2857 5.33328C7.99235 5.33328 -0.380981 13.7066 -0.380981 24C-0.380981 30.3466 2.79235 35.9199 7.61902 39.3066V45.3333C7.61902 46.7999 8.81902 48 10.2857 48H26.2857C27.7524 48 28.9524 46.7999 28.9524 45.3333V39.3066C33.779 35.9199 36.9524 30.3466 36.9524 24C36.9524 13.7066 28.579 5.33328 18.2857 5.33328ZM25.8857 34.9333L23.619 36.5333V42.6666H12.9524V36.5333L10.6857 34.9333C8.91899 33.7085 7.47485 32.0745 6.47649 30.1706C5.47814 28.2668 4.95522 26.1497 4.95235 24C4.95235 16.6399 10.9257 10.6666 18.2857 10.6666C25.6457 10.6666 31.619 16.6399 31.619 24C31.619 28.3466 29.4857 32.4266 25.8857 34.9333Z" fill="#212121"/>
</g>
<defs>
<clipPath id="clip0_174_337">
<rect width="36.5714" height="64" fill="white"/>
</clipPath>
</defs>
</svg>
