<svg width="64" height="64" viewBox="0 0 64 64" fill="none" xmlns="http://www.w3.org/2000/svg">
<path fill-rule="evenodd" clip-rule="evenodd" d="M5.33334 32C5.33334 30.5272 6.52725 29.3333 8.00001 29.3333H56C57.4728 29.3333 58.6667 30.5272 58.6667 32C58.6667 33.4728 57.4728 34.6667 56 34.6667H8.00001C6.52725 34.6667 5.33334 33.4728 5.33334 32Z" fill="#212121"/>
<path fill-rule="evenodd" clip-rule="evenodd" d="M5.33334 16C5.33334 14.5272 6.52725 13.3333 8.00001 13.3333H56C57.4728 13.3333 58.6667 14.5272 58.6667 16C58.6667 17.4728 57.4728 18.6667 56 18.6667H8.00001C6.52725 18.6667 5.33334 17.4728 5.33334 16Z" fill="#212121"/>
<path fill-rule="evenodd" clip-rule="evenodd" d="M5.33334 48C5.33334 46.5272 6.52725 45.3333 8.00001 45.3333H56C57.4728 45.3333 58.6667 46.5272 58.6667 48C58.6667 49.4728 57.4728 50.6667 56 50.6667H8.00001C6.52725 50.6667 5.33334 49.4728 5.33334 48Z" fill="#212121"/>
</svg>
