<svg width="64" height="64" viewBox="0 0 64 64" fill="none" xmlns="http://www.w3.org/2000/svg">
<path fill-rule="evenodd" clip-rule="evenodd" d="M38.5858 10.5858C39.3668 9.80474 40.6332 9.80474 41.4142 10.5858L53.4142 22.5858C54.1953 23.3668 54.1953 24.6332 53.4142 25.4142C52.6332 26.1953 51.3668 26.1953 50.5858 25.4142L38.5858 13.4142C37.8047 12.6332 37.8047 11.3668 38.5858 10.5858Z" fill="#212121"/>
<path fill-rule="evenodd" clip-rule="evenodd" d="M46.5858 2.58579C47.3668 1.80474 48.6331 1.80474 49.4142 2.58579L61.4142 14.5858C62.1952 15.3668 62.1952 16.6332 61.4142 17.4142L21.4142 57.4142C21.1579 57.6705 20.8367 57.8524 20.4851 57.9403L4.48505 61.9403C3.8035 62.1107 3.08253 61.911 2.58577 61.4142C2.08901 60.9175 1.88931 60.1965 2.0597 59.5149L6.0597 43.5149C6.14761 43.1633 6.32945 42.8421 6.58577 42.5858L46.5858 2.58579ZM9.80591 45.0225L6.74872 57.2513L18.9775 54.1941L57.1716 16L48 6.82843L9.80591 45.0225Z" fill="#212121"/>
</svg>
