<svg width="64" height="64" viewBox="0 0 64 64" fill="none" xmlns="http://www.w3.org/2000/svg">
<path d="M41.3333 2.66667H20C18.2319 2.66667 16.5362 3.36904 15.286 4.61929C14.0357 5.86953 13.3333 7.56522 13.3333 9.33333V54.6667C13.3333 56.4348 14.0357 58.1305 15.286 59.3807C16.5362 60.631 18.2319 61.3333 20 61.3333H41.3333C43.1015 61.3333 44.7971 60.631 46.0474 59.3807C47.2976 58.1305 48 56.4348 48 54.6667V9.33333C48 7.56522 47.2976 5.86953 46.0474 4.61929C44.7971 3.36904 43.1015 2.66667 41.3333 2.66667ZM30.6667 58.6667C28.4533 58.6667 26.6667 56.88 26.6667 54.6667C26.6667 52.4533 28.4533 50.6667 30.6667 50.6667C32.88 50.6667 34.6667 52.4533 34.6667 54.6667C34.6667 56.88 32.88 58.6667 30.6667 58.6667ZM42.6667 48H18.6667V10.6667H42.6667V48Z" fill="#212121"/>
</svg>
