<svg width="64" height="64" viewBox="0 0 64 64" fill="none" xmlns="http://www.w3.org/2000/svg">
<g clip-path="url(#clip0_174_318)">
<path d="M32 64C23.5376 64.2229 15.1121 62.8062 7.188 59.828C6.83436 59.6709 6.5339 59.4146 6.32303 59.0901C6.11216 58.7656 5.99995 58.387 6 58C6.00582 52.6975 8.11483 47.6138 11.8643 43.8643C15.6138 40.1148 20.6975 38.0058 26 38H38C43.3025 38.0058 48.3862 40.1148 52.1357 43.8643C55.8852 47.6138 57.9942 52.6975 58 58C58 58.387 57.8878 58.7656 57.677 59.0901C57.4661 59.4146 57.1656 59.6709 56.812 59.828C48.8879 62.8062 40.4624 64.2229 32 64Z" fill="#212121"/>
<path d="M32 34C22.842 34 16 24.498 16 16C16 11.7565 17.6857 7.68687 20.6863 4.68629C23.6869 1.68571 27.7565 0 32 0C36.2435 0 40.3131 1.68571 43.3137 4.68629C46.3143 7.68687 48 11.7565 48 16C48 24.498 41.158 34 32 34Z" fill="#212121"/>
</g>
<defs>
<clipPath id="clip0_174_318">
<rect width="64" height="64" fill="white"/>
</clipPath>
</defs>
</svg>
