<svg width="64" height="64" viewBox="0 0 64 64" fill="none" xmlns="http://www.w3.org/2000/svg">
<path d="M47.0667 16.9333C45.093 14.9463 42.7456 13.3695 40.1597 12.2939C37.5739 11.2184 34.8006 10.6653 32 10.6667C20.2133 10.6667 10.6933 20.2133 10.6933 32C10.6933 43.7867 20.2133 53.3333 32 53.3333C41.9467 53.3333 50.24 46.5333 52.6133 37.3333H47.0667C45.9682 40.452 43.9289 43.153 41.2302 45.0636C38.5316 46.9741 35.3065 48.0001 32 48C23.1733 48 16 40.8267 16 32C16 23.1733 23.1733 16 32 16C36.4267 16 40.3733 17.84 43.2533 20.7467L34.6667 29.3333H53.3333V10.6667L47.0667 16.9333Z" fill="#212121"/>
</svg>
