<svg width="64" height="64" viewBox="0 0 64 64" fill="none" xmlns="http://www.w3.org/2000/svg">
<path d="M61.707 2.293C61.434 2.018 61.024 1.928 60.659 2.06L2.659 23.06C2.281 23.197 2.021 23.548 2.001 23.95C1.981 24.352 2.204 24.727 2.567 24.902L23.453 34.927L42.319 20.982C42.781 20.641 43.36 21.22 43.018 21.681L29.074 40.547L39.099 61.433C39.266 61.78 39.617 62 40 62C40.017 62 40.033 62 40.05 61.999C40.452 61.978 40.803 61.719 40.941 61.341L61.941 3.341C62.072 2.976 61.981 2.567 61.707 2.293Z" fill="#212121"/>
</svg>
