<svg width="64" height="64" viewBox="0 0 64 64" fill="none" xmlns="http://www.w3.org/2000/svg">
<g clip-path="url(#clip0_174_314)">
<path d="M57.4231 18.9666C57.4645 19.5351 57.4645 20.1035 57.4645 20.6758C57.4645 38.0122 44.2654 57.9915 20.1449 57.9915C13.0031 58.0093 6.00805 55.9648 0 52.1035C1.05788 52.224 2.07435 52.2617 3.16988 52.2617C9.07245 52.2761 14.808 50.3028 19.4522 46.6598C16.7151 46.61 14.0618 45.7062 11.8634 44.0748C9.66501 42.4434 8.03127 40.1658 7.19059 37.5605C8 37.6809 8.81318 37.7638 9.66024 37.7638C10.8424 37.7638 12.0207 37.6019 13.1162 37.3195C10.1463 36.7187 7.47583 35.1084 5.55842 32.7621C3.64102 30.4158 2.59487 27.4781 2.59765 24.448V24.2861C4.34447 25.2574 6.37365 25.8673 8.52706 25.9501C5.73873 24.0968 3.76496 21.2471 3.01037 17.9851C2.25579 14.7232 2.77755 11.2962 4.46871 8.40659C7.7623 12.463 11.8723 15.7813 16.5317 18.1461C21.1911 20.5108 26.2958 21.8691 31.5144 22.1327C31.3009 21.1442 31.1912 20.136 31.1868 19.1247C31.1868 17.4024 31.5261 15.697 32.1853 14.1059C32.8445 12.5148 33.8107 11.0691 35.0287 9.85146C36.2467 8.63381 37.6927 7.66803 39.284 7.00928C40.8753 6.35054 42.5808 6.01174 44.3031 6.01224C48.0791 6.01224 51.4899 7.59341 53.888 10.1534C56.8247 9.58697 59.641 8.51574 62.2118 6.9873C61.235 10.0184 59.1837 12.5879 56.4442 14.2118C59.0502 13.9174 61.5972 13.2334 64 12.1826C62.2036 14.7968 59.9803 17.0901 57.4231 18.9666Z" fill="#212121"/>
</g>
<defs>
<clipPath id="clip0_174_314">
<rect width="64" height="64" fill="white"/>
</clipPath>
</defs>
</svg>
