<svg width="64" height="64" viewBox="0 0 64 64" fill="none" xmlns="http://www.w3.org/2000/svg">
<g clip-path="url(#clip0_174_331)">
<path d="M62.4374 54.896L48.8907 41.3493C52.5499 35.8209 54.0254 29.1305 53.0311 22.5758C52.0369 16.021 48.6437 10.0691 43.5097 5.87449C38.3757 1.67985 31.8668 -0.458587 25.2454 -0.126053C18.624 0.206481 12.3621 2.98628 7.67421 7.6742C2.9863 12.3621 0.206496 18.624 -0.126038 25.2454C-0.458572 31.8668 1.67986 38.3757 5.87451 43.5097C10.0692 48.6437 16.021 52.0369 22.5758 53.0311C29.1305 54.0254 35.8209 52.5498 41.3493 48.8907L54.896 62.4373C55.9019 63.4088 57.2491 63.9464 58.6475 63.9343C60.0459 63.9221 61.3835 63.3612 62.3724 62.3724C63.3612 61.3835 63.9221 60.0459 63.9343 58.6475C63.9464 57.2491 63.4089 55.9019 62.4374 54.896ZM10.6667 26.6667C10.6667 23.5022 11.6051 20.4087 13.3632 17.7775C15.1213 15.1464 17.6201 13.0956 20.5438 11.8846C23.4674 10.6736 26.6844 10.3567 29.7881 10.9741C32.8918 11.5915 35.7428 13.1153 37.9804 15.353C40.218 17.5906 41.7419 20.4415 42.3592 23.5452C42.9766 26.6489 42.6598 29.866 41.4488 32.7896C40.2378 35.7132 38.187 38.2121 35.5558 39.9702C32.9246 41.7283 29.8312 42.6667 26.6667 42.6667C22.4232 42.6667 18.3536 40.981 15.353 37.9804C12.3524 34.9798 10.6667 30.9101 10.6667 26.6667Z" fill="#212121"/>
</g>
<defs>
<clipPath id="clip0_174_331">
<rect width="64" height="64" fill="white"/>
</clipPath>
</defs>
</svg>
